<?xml version="1.0" standalone="no"?>
<!DOCTYPE svg PUBLIC "-//W3C//DTD SVG 20010904//EN"
 "http://www.w3.org/TR/2001/REC-SVG-20010904/DTD/svg10.dtd">
<svg version="1.0" xmlns="http://www.w3.org/2000/svg"
 width="1536.000000pt" height="1024.000000pt" viewBox="0 0 1536.000000 1024.000000"
 preserveAspectRatio="xMidYMid meet">

<g transform="translate(0.000000,1024.000000) scale(0.100000,-0.100000)"
fill="#000000" stroke="none">
<path d="M10975 8673 c-11 -3 -184 -45 -385 -94 -201 -49 -504 -123 -675 -165
-170 -42 -320 -82 -332 -90 -17 -11 -23 -24 -23 -51 0 -33 12 -48 133 -172 73
-75 141 -146 152 -159 l19 -23 -514 -514 -513 -514 35 -78 c84 -184 160 -402
209 -602 l11 -44 628 634 628 634 179 -177 c107 -106 189 -179 204 -183 21 -5
34 0 59 22 30 27 34 38 65 203 36 186 240 1243 251 1297 10 52 -16 83 -69 82
-23 -1 -51 -3 -62 -6z"/>
<path d="M6588 8274 c-15 -8 -32 -23 -38 -34 -5 -10 -10 -79 -10 -153 l0 -134
-99 -6 c-170 -12 -439 -73 -631 -144 -204 -76 -456 -221 -635 -366 -108 -88
-267 -251 -364 -372 -72 -90 -199 -283 -190 -288 2 -1 94 -48 205 -104 l201
-101 61 92 c128 192 310 381 475 495 231 159 523 273 805 316 56 8 118 15 137
15 l35 0 0 -295 0 -295 -39 0 c-22 0 -73 -7 -113 -15 -283 -59 -545 -217 -720
-435 -57 -70 -108 -143 -108 -155 0 -3 125 -67 278 -143 l277 -138 80 82 c64
64 98 89 165 122 112 55 241 79 345 63 157 -23 269 -77 381 -182 255 -242 265
-665 21 -918 -116 -119 -252 -180 -427 -188 -238 -12 -436 77 -574 255 -52 68
-71 104 -106 197 l-26 69 -274 132 c-151 72 -285 134 -297 138 -20 7 -23 4
-23 -23 l0 -31 -303 0 -304 0 4 58 c3 31 13 108 24 171 11 62 18 115 17 116
-9 8 -410 196 -413 193 -1 -2 -14 -48 -28 -103 -26 -101 -54 -283 -59 -385
l-3 -55 -103 -5 c-98 -5 -105 -6 -128 -33 -33 -39 -33 -99 1 -132 22 -23 32
-25 117 -25 51 0 98 -4 104 -8 6 -4 12 -32 13 -62 23 -611 366 -1257 892
-1684 324 -261 807 -449 1222 -473 l107 -6 0 -131 c0 -121 2 -133 23 -159 16
-20 34 -30 64 -34 37 -5 46 -2 73 25 l30 30 0 131 0 130 53 5 c28 3 102 10
162 16 118 12 238 36 350 71 39 11 71 22 72 23 2 2 -11 28 -27 59 -36 66 -80
247 -80 331 0 51 -2 57 -17 51 -73 -29 -396 -85 -488 -85 l-25 0 0 300 0 300
29 0 c45 0 187 29 277 56 279 84 554 306 718 581 74 125 141 327 153 466 l6
67 295 0 294 0 -7 -72 c-3 -40 -12 -104 -20 -143 -7 -38 -12 -71 -11 -72 1 -1
45 2 97 8 51 6 162 9 245 6 l151 -5 7 75 c3 42 6 105 6 140 l0 63 101 0 c98 0
101 1 130 29 32 33 36 64 15 115 -18 43 -55 56 -162 56 l-84 0 0 49 c0 28 -7
103 -15 168 -100 761 -575 1420 -1270 1763 -287 141 -553 215 -857 236 l-98 7
0 139 0 140 -29 29 c-33 33 -70 37 -113 13z m297 -795 c266 -32 587 -157 820
-318 222 -153 425 -377 568 -627 111 -193 200 -464 222 -679 3 -33 8 -75 11
-92 l5 -33 -299 0 -299 0 -11 93 c-7 52 -23 134 -37 183 -32 113 -129 308
-197 399 -207 275 -542 468 -854 492 l-84 6 0 293 0 294 33 0 c17 0 73 -5 122
-11z m-1511 -1971 c2 -13 9 -62 15 -110 25 -212 154 -473 325 -655 122 -131
313 -253 494 -314 93 -32 256 -69 303 -69 l29 0 0 -300 0 -301 -52 7 c-354 41
-578 115 -831 271 -341 212 -600 531 -760 938 -61 156 -117 401 -117 513 l0
42 295 0 295 0 4 -22z"/>
<path d="M3729 7353 c-8 -2 -23 -17 -33 -34 -17 -29 -17 -35 4 -177 11 -81 25
-163 30 -182 5 -19 6 -37 2 -40 -4 -4 -73 -32 -153 -64 -165 -65 -194 -86
-194 -146 0 -67 15 -77 421 -294 99 -53 189 -96 200 -96 11 0 91 34 179 75 87
41 162 75 166 75 13 0 259 -120 1147 -561 475 -236 878 -431 895 -434 45 -9
98 28 116 81 13 37 12 44 -5 80 -17 36 -33 46 -190 124 -94 47 -256 125 -360
174 -179 85 -1125 550 -1395 686 l-126 63 -26 160 c-18 112 -31 168 -45 186
-18 25 -184 121 -458 267 -115 60 -137 68 -175 57z"/>
<path d="M10233 6530 c-32 -13 -42 -40 -49 -127 -4 -43 -10 -85 -15 -94 -4 -8
-27 -21 -51 -28 -24 -7 -68 -24 -99 -38 l-56 -25 -80 56 c-118 81 -115 81
-215 -8 -47 -42 -97 -93 -112 -115 -26 -37 -27 -41 -12 -68 8 -15 36 -54 63
-87 26 -32 52 -64 57 -71 7 -9 -1 -34 -21 -77 -18 -34 -35 -75 -38 -90 -4 -16
-10 -28 -14 -28 -51 -2 -197 -23 -212 -31 -35 -18 -49 -70 -49 -182 0 -174 16
-192 179 -204 l89 -6 6 -31 c4 -17 19 -58 35 -90 l29 -59 -64 -86 c-42 -57
-64 -95 -64 -114 0 -21 19 -48 85 -116 46 -48 100 -96 119 -106 l34 -19 44 29
c24 15 64 46 90 67 l47 39 89 -35 c49 -20 94 -36 100 -36 17 0 20 -9 32 -100
20 -156 23 -158 206 -150 110 5 118 6 135 30 12 15 23 60 31 117 l12 92 76 26
c41 15 86 34 98 42 23 14 27 12 80 -26 102 -74 139 -93 164 -85 29 9 185 160
205 198 21 40 11 64 -57 151 l-61 76 38 93 38 93 81 6 c161 11 179 35 172 221
-6 164 -15 173 -164 184 l-96 7 -18 54 c-11 29 -28 69 -40 88 -11 19 -20 38
-20 42 0 4 29 41 65 82 104 118 102 131 -35 257 -77 70 -107 92 -129 92 -18 0
-58 -21 -113 -59 l-85 -60 -99 38 -99 37 -8 55 c-30 193 -26 189 -187 188 -63
0 -125 -4 -137 -9z m292 -624 c76 -35 122 -72 171 -138 63 -85 87 -169 82
-278 -3 -74 -9 -98 -38 -156 -55 -113 -148 -188 -270 -220 -56 -15 -76 -15
-150 -5 -104 15 -169 43 -236 104 -124 112 -166 304 -104 471 40 105 169 216
286 246 66 16 198 4 259 -24z"/>
<path d="M8568 5049 c-30 -17 -40 -48 -54 -168 -7 -64 -14 -119 -14 -122 0 -4
-42 -21 -92 -39 -51 -17 -107 -41 -125 -51 l-31 -20 -79 59 c-128 97 -160 115
-186 108 -13 -3 -80 -64 -150 -135 -161 -164 -160 -156 -39 -306 36 -44 70
-86 75 -92 6 -9 -3 -37 -31 -90 -22 -43 -46 -99 -52 -124 l-12 -46 -126 -10
c-139 -11 -174 -23 -191 -60 -7 -14 -11 -92 -11 -198 0 -231 -7 -223 184 -238
l138 -12 28 -75 c15 -41 40 -96 55 -123 l27 -47 -75 -98 c-132 -172 -133 -161
26 -318 68 -68 135 -126 150 -129 38 -10 58 0 165 79 l97 72 70 -28 c39 -16
94 -36 122 -44 29 -8 55 -20 59 -25 3 -6 14 -67 24 -137 17 -119 20 -128 49
-154 l31 -28 155 0 c226 0 233 5 255 170 20 160 13 148 116 185 51 18 106 41
123 50 l32 16 107 -80 c114 -87 144 -97 192 -65 37 25 157 142 201 197 58 72
54 89 -41 212 -45 58 -85 107 -90 110 -5 3 6 32 25 64 19 32 44 87 56 124 24
75 20 73 159 82 187 13 190 17 190 258 0 224 -2 227 -215 243 -55 4 -103 7
-107 6 -3 -1 -15 29 -27 66 -11 38 -34 93 -51 125 l-30 56 80 103 c114 147
115 144 -41 303 -66 68 -133 128 -148 135 -38 15 -61 4 -163 -79 -48 -39 -94
-71 -101 -71 -8 0 -43 13 -78 29 -35 15 -87 36 -115 45 l-51 17 -17 125 c-18
134 -26 156 -63 173 -31 14 -362 14 -385 0z m377 -790 c85 -31 152 -76 213
-144 188 -206 191 -515 6 -715 -108 -116 -241 -173 -404 -172 -153 1 -268 49
-375 156 -102 103 -155 232 -155 378 0 235 174 454 408 513 82 21 230 13 307
-16z"/>
<path d="M4474 4272 c-23 -20 -163 -161 -313 -313 l-271 -276 0 -531 c0 -575
-1 -562 53 -562 16 0 180 160 572 556 l550 557 -129 126 c-125 123 -201 208
-341 381 -37 47 -71 88 -74 92 -4 4 -25 -9 -47 -30z"/>
</g>
</svg>
