<?xml version="1.0" standalone="no"?>
<!DOCTYPE svg PUBLIC "-//W3C//DTD SVG 20010904//EN"
 "http://www.w3.org/TR/2001/REC-SVG-20010904/DTD/svg10.dtd">
<svg version="1.0" xmlns="http://www.w3.org/2000/svg"
 width="1024.000000pt" height="1024.000000pt" viewBox="0 0 1024.000000 1024.000000"
 preserveAspectRatio="xMidYMid meet">

<g transform="translate(0.000000,1024.000000) scale(0.100000,-0.100000)"
fill="#000000" stroke="none">
<path d="M4925 8925 c-164 -36 -313 -115 -434 -230 -176 -168 -265 -360 -278
-601 -26 -480 276 -881 737 -976 131 -28 306 -21 435 17 304 89 535 322 632
640 25 83 27 103 27 260 0 156 -3 177 -27 258 -100 325 -356 563 -683 632 -86
18 -326 18 -409 0z"/>
<path d="M2550 7190 c-36 -4 -94 -16 -130 -25 -275 -72 -507 -284 -595 -544
-35 -103 -46 -180 -46 -315 0 -345 185 -646 485 -791 145 -70 193 -80 401 -79
176 0 182 0 275 32 307 103 517 338 586 657 21 96 21 289 -1 390 -66 315 -316
575 -626 654 -89 23 -257 33 -349 21z"/>
<path d="M7455 7189 c-100 -14 -248 -67 -334 -120 -194 -120 -322 -292 -383
-517 -31 -112 -30 -363 1 -476 107 -395 442 -648 856 -648 232 1 406 66 587
219 271 230 371 647 238 992 -147 380 -547 608 -965 550z"/>
<path d="M4385 7073 c-322 -79 -529 -238 -599 -461 -38 -122 -79 -617 -57
-684 31 -94 154 -149 467 -207 314 -58 562 -74 1057 -68 413 5 516 13 767 58
352 62 496 128 516 235 7 38 -9 343 -27 502 -19 173 -75 298 -180 402 -88 87
-165 130 -332 185 -138 45 -190 54 -202 36 -3 -6 -45 -32 -93 -60 -376 -215
-810 -208 -1186 18 -84 51 -92 53 -131 44z"/>
<path d="M3306 5375 c-116 -82 -283 -149 -451 -181 -119 -22 -334 -15 -450 15
-126 33 -263 92 -371 161 -26 16 -57 30 -69 30 -40 0 -230 -62 -320 -104 -211
-100 -321 -251 -345 -479 -25 -234 -40 -513 -31 -546 24 -81 83 -125 213 -161
288 -78 710 -130 1071 -130 163 0 167 1 167 21 0 12 -5 97 -11 189 -10 158 -9
174 10 251 47 186 166 289 358 310 48 5 284 9 523 9 l434 -1 -3 43 c-5 66 -38
185 -68 241 -15 29 -59 84 -98 123 -99 99 -184 144 -397 207 l-116 35 -46 -33z"/>
<path d="M6765 5368 c-192 -58 -284 -106 -376 -197 -90 -90 -132 -168 -155
-289 -26 -137 -85 -121 486 -125 444 -3 501 -5 550 -21 112 -36 192 -106 243
-209 41 -83 46 -145 31 -355 -7 -102 -12 -188 -9 -190 7 -7 339 -2 480 9 350
24 750 99 873 163 40 21 79 69 91 113 11 38 -17 459 -40 616 -27 179 -133 314
-319 405 -92 45 -298 112 -346 112 -8 0 -30 -11 -47 -24 -55 -41 -162 -96
-246 -126 -339 -124 -706 -82 -1016 114 -27 18 -54 35 -60 38 -5 3 -68 -12
-140 -34z"/>
<path d="M3030 4498 c-29 -15 -53 -37 -68 -63 -22 -38 -23 -47 -18 -165 3 -69
31 -447 61 -840 30 -393 62 -814 71 -935 8 -121 19 -230 24 -242 l10 -23 2012
0 c1107 0 2019 4 2026 9 14 8 43 363 132 1579 37 511 39 556 24 590 -19 47
-51 81 -91 98 -27 12 -369 14 -2086 14 l-2053 0 -44 -22z"/>
<path d="M2880 1981 c-5 -11 -10 -69 -10 -129 0 -192 52 -297 178 -359 l57
-28 2020 0 2020 0 50 25 c63 31 117 86 151 152 23 45 28 71 35 178 5 90 4 132
-4 150 l-12 25 -2237 3 c-2204 2 -2237 2 -2248 -17z m2610 -220 c16 -30 12
-59 -10 -81 -19 -19 -33 -20 -353 -20 -285 0 -336 2 -355 16 -26 18 -29 60 -5
86 15 17 40 18 364 18 334 0 349 -1 359 -19z"/>
</g>
</svg>
