<?xml version="1.0" standalone="no"?>
<!DOCTYPE svg PUBLIC "-//W3C//DTD SVG 20010904//EN"
 "http://www.w3.org/TR/2001/REC-SVG-20010904/DTD/svg10.dtd">
<svg version="1.0" xmlns="http://www.w3.org/2000/svg"
 width="1536.000000pt" height="1024.000000pt" viewBox="0 0 1536.000000 1024.000000"
 preserveAspectRatio="xMidYMid meet">

<g transform="translate(0.000000,1024.000000) scale(0.100000,-0.100000)"
fill="#000000" stroke="none">
<path d="M3990 9121 c-93 -20 -178 -84 -220 -168 l-25 -48 0 -940 0 -940 27
-51 c28 -52 87 -113 135 -137 64 -33 133 -37 598 -37 282 0 465 -4 465 -9 0
-16 -52 -133 -76 -171 -45 -72 -66 -84 -167 -91 -82 -6 -93 -9 -114 -33 -33
-39 -31 -90 6 -127 l29 -29 662 0 c680 0 687 0 717 39 21 27 16 87 -11 117
-21 25 -31 28 -109 33 -64 5 -93 11 -114 27 -28 21 -122 194 -123 226 0 16 35
17 498 20 l497 3 55 26 c77 36 124 80 157 147 l28 57 0 930 0 930 -24 49 c-32
64 -92 123 -161 155 l-55 26 -1320 1 c-726 1 -1336 -1 -1355 -5z m2657 -211
c66 -40 63 -7 63 -770 l0 -690 -1390 0 -1390 0 0 690 c0 763 -3 730 63 770 31
20 60 20 1327 20 1267 0 1296 0 1327 -20z"/>
<path d="M8693 9120 c-89 -18 -171 -80 -215 -163 l-23 -42 0 -945 c0 -900 1
-947 19 -982 30 -62 93 -125 154 -155 l57 -28 501 -3 502 -3 -8 -32 c-12 -55
-77 -173 -110 -201 -36 -30 -50 -34 -144 -39 -60 -3 -72 -6 -92 -31 -34 -39
-32 -89 5 -127 l29 -29 665 0 665 0 31 26 c43 36 44 93 2 135 -27 27 -35 29
-101 29 -81 0 -117 15 -153 62 -26 35 -87 170 -87 194 0 11 86 14 498 16 l497
3 56 26 c69 33 127 89 160 155 l24 49 3 909 c3 1017 6 972 -68 1064 -28 36
-58 60 -107 84 l-68 33 -1325 2 c-729 0 -1344 -3 -1367 -7z m2665 -204 c15 -8
36 -24 47 -36 19 -22 20 -40 25 -726 l5 -704 -1397 0 -1398 0 0 690 c0 763 -3
730 63 770 31 20 60 20 1330 20 1092 0 1302 -2 1325 -14z"/>
<path d="M7616 6309 l-26 -31 0 -334 0 -334 -1090 0 -1090 0 0 251 0 251 -29
29 c-41 40 -91 40 -132 -1 l-30 -29 3 -322 3 -321 28 -24 28 -24 1155 0 1154
0 0 -266 0 -266 29 -29 c42 -42 99 -41 135 2 l26 31 0 264 0 264 1146 0 1146
0 29 29 29 29 0 317 0 317 -29 29 c-22 21 -39 29 -66 29 -27 0 -44 -8 -66 -29
l-29 -29 0 -251 0 -251 -1080 0 -1079 0 -3 341 -3 341 -28 24 c-42 36 -98 33
-131 -7z"/>
<path d="M6107 4649 c-88 -21 -167 -84 -209 -168 -22 -45 -23 -54 -26 -386 -4
-371 -1 -396 51 -467 19 -27 27 -46 21 -53 -74 -99 -73 -93 -74 -495 0 -215 4
-370 10 -392 6 -21 26 -58 45 -82 26 -35 31 -47 21 -55 -7 -6 -26 -34 -42 -63
l-29 -53 0 -345 c0 -314 2 -349 19 -394 24 -63 77 -121 140 -154 l51 -27 1590
0 1590 0 42 23 c64 34 111 80 141 136 l27 51 3 325 c2 179 0 344 -3 367 -3 24
-22 66 -40 93 l-34 51 37 56 37 56 3 371 c3 403 1 427 -50 497 l-29 40 38 61
38 62 0 370 0 371 -30 54 c-33 59 -77 100 -145 134 l-45 22 -1555 2 c-886 0
-1571 -3 -1593 -8z m526 -375 c112 -74 97 -246 -28 -311 -44 -23 -132 -22
-174 2 -143 84 -129 277 24 333 46 17 134 5 178 -24z m2429 -91 c34 -32 38
-88 9 -124 -26 -32 -84 -36 -576 -33 -225 2 -488 3 -583 3 l-173 1 -24 26
c-42 45 -32 114 20 142 14 8 216 11 659 12 l640 0 28 -27z m-2459 -927 c67
-27 114 -113 104 -188 -13 -98 -101 -164 -208 -156 -66 5 -100 24 -136 78 -83
121 5 279 155 280 29 0 67 -6 85 -14z m2446 -91 c32 -16 41 -33 41 -75 0 -42
-9 -59 -41 -75 -24 -13 -126 -15 -667 -15 l-639 0 -27 25 c-43 40 -34 113 19
143 14 8 196 11 653 12 536 0 637 -2 661 -15z m-2439 -945 c133 -68 131 -260
-4 -321 -110 -50 -235 2 -267 111 -25 82 20 183 95 216 47 20 130 17 176 -6z
m2454 -99 c45 -42 33 -117 -24 -146 -44 -23 -1256 -23 -1300 0 -36 19 -50 43
-50 88 0 33 25 67 60 80 8 3 302 5 652 4 l636 -2 26 -24z"/>
</g>
</svg>
