<?xml version="1.0" standalone="no"?>
<!DOCTYPE svg PUBLIC "-//W3C//DTD SVG 20010904//EN"
 "http://www.w3.org/TR/2001/REC-SVG-20010904/DTD/svg10.dtd">
<svg version="1.0" xmlns="http://www.w3.org/2000/svg"
 width="1536.000000pt" height="1024.000000pt" viewBox="0 0 1536.000000 1024.000000"
 preserveAspectRatio="xMidYMid meet">

<g transform="translate(0.000000,1024.000000) scale(0.100000,-0.100000)"
fill="#000000" stroke="none">
<path d="M7345 8243 c-276 -9 -631 -49 -880 -98 -523 -105 -815 -269 -815
-459 0 -190 268 -349 765 -456 608 -130 1694 -146 2365 -34 454 75 800 213
899 358 62 89 62 166 0 259 -115 174 -565 327 -1149 391 -367 40 -756 53
-1185 39z"/>
<path d="M5652 6778 c3 -466 4 -505 21 -537 132 -241 669 -411 1487 -473 216
-16 849 -16 1065 0 781 58 1354 242 1471 473 l24 48 0 495 0 494 -67 -45
c-336 -227 -1065 -365 -1943 -366 -914 -2 -1713 148 -2014 377 l-47 36 3 -502z"/>
<path d="M5650 5426 l0 -493 31 -61 c55 -110 186 -199 409 -277 389 -135 865
-202 1506 -212 576 -9 1009 30 1413 128 361 88 625 227 690 363 20 41 21 57
21 544 l0 502 -47 -36 c-208 -159 -729 -301 -1281 -349 -505 -44 -987 -40
-1482 10 -537 56 -953 169 -1187 325 l-73 48 0 -492z"/>
<path d="M5652 4053 l3 -508 27 -47 c132 -223 667 -395 1448 -465 274 -24 868
-24 1145 0 751 67 1311 251 1419 469 l26 52 0 503 0 503 -52 -41 c-159 -125
-550 -253 -960 -313 -569 -84 -1446 -87 -1998 -6 -443 65 -836 190 -1010 322
l-51 38 3 -507z"/>
</g>
</svg>
