<?xml version="1.0" standalone="no"?>
<!DOCTYPE svg PUBLIC "-//W3C//DTD SVG 20010904//EN"
 "http://www.w3.org/TR/2001/REC-SVG-20010904/DTD/svg10.dtd">
<svg version="1.0" xmlns="http://www.w3.org/2000/svg"
 width="612.000000pt" height="408.000000pt" viewBox="0 0 612.000000 408.000000"
 preserveAspectRatio="xMidYMid meet">

<g transform="translate(0.000000,408.000000) scale(0.100000,-0.100000)"
fill="#000000" stroke="none">
<path d="M2095 3764 c-11 -2 -45 -9 -75 -15 -153 -31 -247 -136 -270 -299 -10
-72 -2 -168 20 -225 7 -19 5 -33 -12 -61 -20 -35 -21 -41 -9 -113 15 -87 39
-148 70 -175 11 -11 21 -24 21 -31 0 -13 70 -157 97 -198 18 -27 18 -28 -12
-84 l-30 -57 -170 -61 c-210 -75 -270 -107 -312 -168 -39 -58 -50 -109 -65
-298 -13 -175 -12 -177 74 -190 90 -14 409 -28 738 -31 l315 -3 5 265 c6 295
7 302 78 350 33 23 46 25 200 30 l164 5 -119 39 c-190 64 -195 66 -223 125
-19 42 -22 56 -12 69 33 47 74 123 92 170 11 30 34 70 50 90 20 25 34 60 45
110 20 97 19 124 -6 156 -18 23 -19 31 -10 54 39 96 31 258 -17 345 -31 58
-60 83 -116 99 -22 7 -59 25 -80 40 -63 45 -127 60 -276 64 -74 1 -144 1 -155
-2z m508 -391 c17 -32 27 -68 29 -103 l3 -55 -157 -5 c-106 -3 -161 -9 -170
-17 -17 -18 -89 -16 -112 2 -15 12 -53 15 -169 15 l-150 0 6 55 c5 52 41 135
59 135 5 0 26 -12 47 -26 138 -91 392 -63 505 55 l29 30 27 -19 c14 -10 38
-40 53 -67z m-445 -269 c4 -74 -9 -84 -109 -84 l-80 0 -15 35 c-15 36 -19 87
-7 99 4 4 52 5 107 4 l101 -3 3 -51z m402 41 c15 -18 4 -89 -17 -110 -20 -21
-156 -21 -173 0 -14 17 -25 88 -17 110 9 21 189 22 207 0z m-691 -31 c20 -16
31 -35 31 -51 0 -15 14 -39 35 -60 l35 -35 95 4 c107 3 124 13 147 83 11 34
17 40 42 40 29 0 34 -5 58 -59 24 -55 60 -71 153 -71 79 0 85 2 114 29 18 18
34 45 38 69 11 51 55 89 78 66 13 -13 13 -23 0 -84 -8 -39 -15 -73 -15 -77 0
-5 -14 -20 -30 -35 -17 -14 -35 -44 -41 -66 -32 -120 -123 -237 -216 -280 -64
-29 -186 -30 -258 -3 -75 29 -150 106 -196 200 -22 44 -39 88 -39 97 0 10 -16
33 -35 51 -29 28 -36 44 -47 104 -11 69 -8 104 11 104 5 0 23 -12 40 -26z
m190 -568 c116 -74 285 -74 402 -1 l37 24 25 -50 26 -49 -52 -30 c-116 -68
-262 -83 -385 -41 -64 22 -142 65 -142 79 0 8 43 92 48 92 1 0 20 -11 41 -24z"/>
<path d="M2999 3625 c-58 -32 -59 -40 -59 -544 0 -403 2 -465 16 -494 33 -70
2 -67 704 -67 698 -1 659 -4 700 63 19 31 20 53 20 502 -1 508 0 499 -56 536
-28 18 -53 19 -664 19 -530 -1 -639 -3 -661 -15z m985 -91 c19 -18 19 -20 6
-45 -6 -11 -21 -19 -35 -19 -20 0 -45 24 -45 44 0 10 32 36 45 36 7 0 21 -7
29 -16z m140 -3 c23 -25 6 -61 -29 -61 -35 0 -52 36 -29 61 9 10 22 19 29 19
7 0 20 -9 29 -19z m140 3 c31 -30 8 -69 -36 -62 -26 3 -37 41 -18 64 16 18 35
18 54 -2z m46 -527 c0 -321 -2 -376 -16 -395 l-15 -22 -619 0 -619 0 -15 22
c-14 19 -16 74 -16 395 l0 373 650 0 650 0 0 -373z"/>
<path d="M3344 3273 c-16 -49 -26 -63 -50 -69 -15 -4 -35 -2 -45 5 -29 17 -43
14 -74 -19 -28 -29 -28 -30 -11 -62 23 -43 9 -88 -28 -88 -33 0 -48 -22 -44
-67 3 -33 7 -39 37 -49 46 -15 58 -47 34 -91 -17 -32 -17 -33 12 -63 32 -33
50 -37 78 -15 15 11 24 11 45 2 33 -14 42 -26 42 -54 0 -21 5 -23 55 -23 50 0
55 2 55 23 0 28 9 40 42 54 21 9 30 9 45 -2 28 -22 46 -18 78 15 28 29 28 30
11 62 -23 44 -11 78 35 93 32 11 34 15 34 56 0 41 -2 45 -35 55 -47 16 -59 46
-35 90 l18 35 -33 34 -32 33 -35 -16 c-31 -15 -37 -15 -61 -1 -17 9 -29 26
-32 44 -5 28 -9 30 -53 33 -38 3 -48 0 -53 -15z m127 -186 c66 -44 72 -142 12
-201 -31 -32 -61 -40 -111 -33 -46 8 -98 61 -107 110 -21 109 111 188 206 124z"/>
<path d="M3787 3243 c-14 -13 -7 -71 9 -77 27 -10 402 -7 409 4 3 5 8 20 10
32 9 45 -4 48 -220 48 -111 0 -205 -3 -208 -7z"/>
<path d="M3784 3056 c-3 -8 -4 -27 -2 -43 l3 -28 204 -3 c128 -1 208 1 215 8
14 14 16 41 5 62 -9 16 -27 18 -215 18 -167 0 -206 -3 -210 -14z"/>
<path d="M3780 2840 l0 -40 215 0 c118 0 215 3 216 8 0 4 2 15 4 26 9 45 5 46
-221 46 l-214 0 0 -40z"/>
<path d="M2584 2296 l-34 -34 0 -371 0 -371 780 0 780 0 0 385 c0 382 0 384
-22 405 -21 20 -31 20 -746 20 l-724 0 -34 -34z m831 -175 c7 -24 -139 -442
-161 -458 -19 -14 -54 -1 -54 19 0 12 146 434 156 449 10 17 52 10 59 -10z
m-255 -74 c0 -6 -33 -44 -72 -84 l-72 -73 74 -75 c63 -63 73 -78 64 -93 -23
-36 -45 -25 -135 64 -49 49 -89 95 -89 102 0 14 53 70 143 150 40 36 50 41 67
32 11 -6 20 -16 20 -23z m486 -54 c52 -48 94 -94 94 -103 0 -8 -40 -55 -89
-104 -69 -69 -93 -87 -112 -84 -48 6 -35 40 45 115 l75 70 -74 73 c-41 40 -75
78 -75 84 0 14 20 36 33 36 5 0 51 -39 103 -87z"/>
<path d="M2430 1455 c0 -8 5 -26 12 -40 26 -57 -4 -55 897 -55 l830 0 25 23
c15 12 29 37 32 55 l7 32 -342 0 c-328 0 -342 -1 -361 -20 -19 -19 -33 -20
-203 -20 -171 0 -185 1 -202 20 -17 19 -31 20 -357 20 -289 0 -338 -2 -338
-15z"/>
</g>
</svg>
