<?xml version="1.0" standalone="no"?>
<!DOCTYPE svg PUBLIC "-//W3C//DTD SVG 20010904//EN"
 "http://www.w3.org/TR/2001/REC-SVG-20010904/DTD/svg10.dtd">
<svg version="1.0" xmlns="http://www.w3.org/2000/svg"
 width="1024.000000pt" height="1024.000000pt" viewBox="0 0 1024.000000 1024.000000"
 preserveAspectRatio="xMidYMid meet">

<g transform="translate(0.000000,1024.000000) scale(0.100000,-0.100000)"
fill="#000000" stroke="none">
<path d="M4950 8766 c-151 -32 -278 -98 -392 -205 -135 -126 -212 -269 -244
-453 -32 -182 -3 -362 84 -533 37 -73 64 -108 142 -186 169 -171 354 -249 585
-249 366 0 693 257 785 615 76 298 1 567 -220 786 -84 83 -110 102 -201 147
-57 28 -131 58 -164 67 -82 23 -291 28 -375 11z"/>
<path d="M4424 7085 c-272 -71 -471 -210 -559 -389 -43 -88 -54 -150 -70 -381
-22 -322 -21 -356 11 -395 94 -111 479 -198 1014 -230 531 -31 1087 18 1408
125 121 41 184 75 213 117 21 29 22 37 15 187 -8 191 -23 368 -38 441 -50 253
-304 465 -640 534 -105 22 -112 21 -184 -19 -157 -88 -286 -119 -489 -118
-126 1 -165 5 -246 26 -91 24 -193 68 -251 108 -34 24 -72 23 -184 -6z"/>
<path d="M2595 7015 c-486 -90 -765 -569 -611 -1050 63 -197 213 -369 401
-460 118 -58 187 -75 321 -82 163 -8 299 20 424 90 282 157 435 436 417 760
-10 172 -59 305 -168 450 -172 228 -490 347 -784 292z"/>
<path d="M7344 7016 c-98 -19 -137 -32 -224 -77 -393 -202 -544 -700 -334
-1099 135 -258 411 -419 717 -420 221 0 418 87 574 253 151 162 221 361 211
599 -10 209 -86 378 -238 528 -100 99 -218 167 -346 201 -102 26 -266 33 -360
15z"/>
<path d="M5018 4069 l-3 -1411 -46 -18 c-98 -37 -188 -125 -220 -212 l-13 -38
-806 0 -805 0 -24 56 c-33 76 -105 148 -186 185 l-65 31 0 544 0 544 -100 0
-100 0 0 -550 c0 -529 -1 -550 -19 -550 -31 0 -114 -49 -164 -98 -26 -26 -62
-76 -80 -112 -30 -61 -32 -71 -32 -175 0 -103 2 -114 32 -177 56 -119 155
-197 283 -224 191 -40 384 71 450 259 l18 52 796 3 c753 2 796 1 796 -15 0
-38 61 -146 110 -193 125 -122 300 -149 459 -71 98 47 185 153 206 249 l7 32
794 0 794 0 6 -27 c22 -92 111 -203 201 -250 202 -108 447 -25 546 184 30 64
32 75 32 178 0 105 -2 114 -33 177 -51 105 -130 173 -244 211 -17 6 -18 41
-18 552 l0 545 -100 0 -100 0 0 -545 c0 -511 -1 -546 -17 -551 -103 -34 -213
-131 -249 -218 l-19 -46 -800 0 -800 0 -18 45 c-35 85 -144 185 -231 210 l-41
12 -3 1412 -2 1411 -95 0 -95 0 -2 -1411z m-2160 -1626 c175 -108 97 -393
-107 -393 -62 0 -89 10 -136 52 -121 105 -91 297 55 363 51 23 131 13 188 -22z
m2320 25 c56 -14 124 -77 142 -133 19 -58 9 -146 -23 -194 -38 -57 -103 -92
-169 -92 -66 0 -104 13 -147 54 -117 111 -81 310 65 362 49 18 73 18 132 3z
m2385 -4 c49 -17 110 -75 128 -122 6 -15 10 -51 10 -80 0 -75 -33 -138 -95
-179 -41 -28 -57 -33 -108 -33 -72 0 -116 19 -162 70 -77 86 -73 213 9 295 62
62 132 78 218 49z"/>
<path d="M2100 5371 c-378 -88 -609 -286 -655 -561 -22 -134 -47 -544 -34
-577 29 -77 134 -130 359 -182 260 -60 541 -84 980 -84 553 0 973 56 1200 160
146 66 143 58 119 398 -10 149 -26 299 -34 335 -60 253 -285 430 -651 510
l-83 18 -108 -54 c-135 -67 -235 -94 -383 -101 -202 -10 -374 26 -539 113 -46
24 -86 44 -90 43 -3 0 -40 -9 -81 -18z"/>
<path d="M6835 5365 c-204 -47 -347 -118 -467 -233 -87 -83 -147 -185 -168
-286 -16 -78 -47 -569 -38 -604 37 -143 445 -244 1104 -273 588 -27 1167 37
1437 158 64 29 127 91 127 126 0 54 -31 470 -40 545 -18 138 -74 247 -176 342
-124 115 -260 180 -487 229 l-87 19 -105 -53 c-129 -66 -248 -96 -402 -103
-206 -8 -377 31 -535 124 -33 18 -60 34 -61 33 -1 0 -47 -11 -102 -24z"/>
</g>
</svg>
